External Loads File
version=1
nRows=62
nColumns=13
Range=5.000000e-03-10 seconds
endheader
time 	forceRightX 	forceRightY 	forceRightZ 	pointRightX 	pointRightY 	pointRightZ 	forceLeftX 	forceLeftY 	forceLeftZ 	pointLeftX 	pointLeftY 	pointLeftZ 		
7.505000 -162.071170 587.312909 -0.000000 0.501171 0.365542 -0.195701 48.860206 -0.991888 -0.000000 0.171526 0.287227 -0.442490
7.510000 -165.685594 599.584193 -0.000000 0.504586 0.353924 -0.195790 45.143099 -2.159297 -0.000000 0.170709 0.297895 -0.442461
7.515000 -170.786993 609.175073 -0.000000 0.507321 0.343498 -0.195558 42.296530 -2.694609 -0.000000 0.170323 0.308629 -0.442439
7.520000 -172.780476 618.271437 -0.000000 0.509310 0.332028 -0.195632 40.143493 -3.252044 -0.000000 0.170534 0.319407 -0.442427
7.525000 -174.788750 626.549497 -0.000000 0.510850 0.321613 -0.195421 38.435844 -3.779126 -0.000000 0.171242 0.330434 -0.442440
7.530000 -172.869613 635.314014 -0.000000 0.511646 0.310130 -0.195369 36.888533 -4.544282 -0.000000 0.172558 0.341383 -0.442322
7.535000 -169.532311 643.799872 -0.000000 0.511442 0.299183 -0.195502 35.321993 -5.331185 -0.000000 0.174580 0.352303 -0.442540
7.540000 -163.722394 652.044839 -0.000000 0.510174 0.288427 -0.195215 33.577327 -6.131571 -0.000000 0.177197 0.363181 -0.442385
7.545000 -155.637375 659.634885 -0.000000 0.508279 0.278072 -0.194893 31.527485 -6.897439 -0.000000 0.180229 0.374149 -0.442102
7.550000 -145.366838 666.154144 -0.000000 0.505511 0.267704 -0.194852 29.104801 -7.656361 -0.000000 0.183990 0.384591 -0.442122
7.555000 -132.822096 671.264539 -0.000000 0.501879 0.257565 -0.194659 26.319899 -8.547350 -0.000000 0.188179 0.395016 -0.441956
7.560000 -118.760870 674.533350 -0.000000 0.497580 0.247698 -0.194484 23.256143 -9.779887 -0.000000 0.192937 0.405175 -0.441814
7.565000 -102.356636 675.883051 -0.000000 0.491625 0.238111 -0.196347 19.987468 -11.671052 -0.000000 0.198385 0.414967 -0.441869
7.570000 -86.031552 674.762978 -0.000000 0.485780 0.228947 -0.196477 16.596776 -14.421640 -0.000000 0.204226 0.424578 -0.441587
7.575000 -69.527919 671.140140 -0.000000 0.479090 0.220184 -0.196898 13.082597 -18.291997 -0.000000 0.210495 0.433716 -0.441389
7.580000 -51.210474 665.090945 -0.000000 0.470808 0.211574 -0.196670 9.352764 -23.507404 -0.000000 0.217235 0.442521 -0.441692
7.585000 -34.993880 656.283770 -0.000000 0.462913 0.203565 -0.197017 5.452305 -30.117692 -0.000000 0.224111 0.450927 -0.440912
7.590000 -17.523775 644.981228 -0.000000 0.453413 0.196087 -0.195737 1.136463 -38.159810 -0.000000 0.231549 0.458952 -0.440714
7.595000 -3.231224 631.020655 -0.000000 0.445082 0.189089 -0.197420 -3.457082 -47.496047 -0.000000 0.239551 0.466367 -0.441075
7.600000 11.307245 614.455720 -0.000000 0.435459 0.182659 -0.197636 -8.652265 -57.870459 -0.000000 0.247438 0.473215 -0.440467
7.605000 24.655206 595.257250 -0.000000 0.425281 0.176944 -0.197484 -14.488324 -68.882952 -0.000000 0.255798 0.478800 -0.440214
7.610000 37.842448 573.508489 -0.000000 0.414745 0.171847 -0.196973 -21.207394 -79.974873 -0.000000 0.264531 0.484247 -0.440380
7.615000 50.272303 549.546402 -0.000000 0.403892 0.167457 -0.196736 -28.809506 -90.493828 -0.000000 0.273509 0.489172 -0.440321
7.620000 62.121985 523.865568 -0.000000 0.392703 0.163675 -0.196386 -37.252416 -99.697694 -0.000000 0.282749 0.493656 -0.440215
7.625000 73.220781 497.075304 -0.000000 0.381502 0.160494 -0.196113 -46.255234 -106.903591 -0.000000 0.292325 0.497241 -0.440067
7.630000 84.050346 469.624927 -0.000000 0.369878 0.158115 -0.196082 -55.490784 -111.508869 -0.000000 0.302290 0.500152 -0.439826
7.635000 93.992939 441.959435 -0.000000 0.358306 0.156404 -0.195756 -64.282626 -113.228085 -0.000000 0.312065 0.502339 -0.439939
7.640000 103.477215 414.142537 -0.000000 0.346538 0.155499 -0.195457 -72.215436 -111.878588 -0.000000 0.321960 0.503811 -0.439934
7.645000 112.237694 386.211612 -0.000000 0.334663 0.155308 -0.195081 -78.833794 -107.515440 -0.000000 0.331807 0.504457 -0.439972
7.650000 120.135680 358.115258 -0.000000 0.322515 0.155945 -0.194794 -83.911871 -100.224490 -0.000000 0.341470 0.504343 -0.440047
7.655000 126.679164 329.932991 -0.000000 0.310461 0.157174 -0.194142 -87.368483 -90.109665 -0.000000 0.350808 0.503503 -0.440204
7.660000 131.811228 301.658126 -0.000000 0.298432 0.159196 -0.194064 -89.481219 -77.027418 -0.000000 0.359953 0.502100 -0.440904
7.665000 135.234921 273.440620 -0.000000 0.286598 0.161766 -0.192966 -90.661195 -60.746524 -0.000000 0.368916 0.499903 -0.440949
7.670000 136.190631 245.791380 -0.000000 0.274030 0.165017 -0.192142 -91.404982 -41.143788 -0.000000 0.376624 0.497016 -0.441528
7.675000 135.750026 218.355360 -0.000000 0.262205 0.169082 -0.191058 -92.628765 -17.430778 -0.000000 0.384419 0.493301 -0.441844
7.680000 133.784343 191.453075 -0.000000 0.250448 0.173790 -0.190206 -94.842961 10.765317 -0.000000 0.391908 0.488904 -0.442170
7.685000 130.503741 165.321336 -0.000000 0.239029 0.179021 -0.189480 -98.380135 43.764798 -0.000000 0.398858 0.483631 -0.442606
7.690000 126.396445 140.011836 -0.000000 0.227941 0.185004 -0.188777 -103.107529 81.716367 -0.000000 0.405670 0.477283 -0.443325
7.695000 121.571189 115.873948 -0.000000 0.217284 0.191492 -0.188546 -108.537172 124.085718 -0.000000 0.412525 0.470209 -0.444002
7.700000 115.874344 93.627350 -0.000000 0.207102 0.198451 -0.188236 -114.589364 169.472175 -0.000000 0.418484 0.462911 -0.444210
7.705000 109.639745 73.534071 -0.000000 0.197883 0.205723 -0.187813 -121.261252 216.410244 -0.000000 0.423826 0.455376 -0.444432
7.710000 103.273923 55.533119 -0.000000 0.189033 0.213237 -0.187351 -128.336150 263.561202 -0.000000 0.428960 0.447220 -0.444795
7.715000 96.969480 39.545331 -0.000000 0.181125 0.221276 -0.186980 -135.634805 309.624086 -0.000000 0.434245 0.438475 -0.444684
7.720000 90.744764 25.589532 -0.000000 0.173724 0.229776 -0.186790 -143.425265 353.233501 -0.000000 0.439687 0.429360 -0.444747
7.725000 84.621212 13.534213 -0.000000 0.166925 0.238645 -0.186658 -151.679447 393.323495 -0.000000 0.445063 0.419837 -0.444691
7.730000 78.573903 3.274503 -0.000000 0.160740 0.247753 -0.186606 -160.511009 428.994059 -0.000000 0.450183 0.409972 -0.444716
7.735000 72.578043 -5.284396 -0.000000 0.155506 0.257061 -0.186529 -170.063563 459.687066 -0.000000 0.454910 0.400024 -0.444555
7.740000 66.613667 -12.307698 -0.000000 0.150858 0.266630 -0.186605 -179.869702 485.530705 -0.000000 0.459083 0.389910 -0.444465
7.745000 60.648997 -17.922896 -0.000000 0.146722 0.276354 -0.186886 -189.220367 507.213853 -0.000000 0.462978 0.379400 -0.444529
7.750000 54.691319 -22.109004 -0.000000 0.143181 0.286366 -0.187201 -198.067424 525.517714 -0.000000 0.466511 0.368685 -0.444628
7.755000 48.826093 -24.784053 -0.000000 0.140389 0.296515 -0.187463 -206.932443 541.133234 -0.000000 0.469512 0.358007 -0.444627
7.760000 43.141222 -26.005372 -0.000000 0.138129 0.306854 -0.187783 -215.226770 555.121578 -0.000000 0.472003 0.347253 -0.444607
7.765000 37.770146 -25.818754 -0.000000 0.136693 0.317269 -0.188207 -222.890356 568.182939 -0.000000 0.474027 0.336456 -0.444590
7.770000 32.813833 -24.369542 -0.000000 0.135732 0.327696 -0.188765 -229.534506 580.932523 -0.000000 0.475489 0.325574 -0.444731
7.775000 28.314858 -21.901743 -0.000000 0.135689 0.338320 -0.188621 -234.451390 593.877883 -0.000000 0.476422 0.314670 -0.445176
7.780000 24.277876 -18.713447 -0.000000 0.136706 0.348834 -0.189201 -237.345671 607.091321 -0.000000 0.476642 0.303639 -0.444867
7.785000 20.638981 -15.174242 -0.000000 0.138120 0.359351 -0.189662 -237.996457 620.361337 -0.000000 0.476300 0.292692 -0.444946
7.790000 17.259438 -11.704011 -0.000000 0.140555 0.369896 -0.190233 -235.822477 633.464040 -0.000000 0.475199 0.281878 -0.445143
7.795000 13.979288 -8.682308 -0.000000 0.143639 0.380372 -0.190740 -230.887908 645.894723 -0.000000 0.473498 0.271195 -0.445293
7.800000 10.624587 -6.442932 -0.000000 0.147624 0.390853 -0.191766 -222.929554 657.315090 -0.000000 0.471162 0.260688 -0.445375
7.805000 7.047964 -5.240842 -0.000000 0.152420 0.401029 -0.192636 -212.783257 667.093195 -0.000000 0.468199 0.250484 -0.445451
7.810000 3.127364 -5.294232 -0.000000 0.157972 0.411043 -0.193493 -200.161550 675.093606 -0.000000 0.464598 0.240475 -0.445585
